<?xml version="1.0" encoding="UTF-8"?>
<!DOCTYPE svg PUBLIC "-//W3C//DTD SVG 1.1//EN" "http://www.w3.org/Graphics/SVG/1.1/DTD/svg11.dtd">
<!-- Creator: CorelDRAW -->
<svg xmlns="http://www.w3.org/2000/svg" xml:space="preserve" width="210mm" height="297mm" version="1.1" style="shape-rendering:geometricPrecision; text-rendering:geometricPrecision; image-rendering:optimizeQuality; fill-rule:evenodd; clip-rule:evenodd"
viewBox="0 0 21000 29700"
 xmlns:xlink="http://www.w3.org/1999/xlink"
 xmlns:xodm="http://www.corel.com/coreldraw/odm/2003">
 <defs>
  <style type="text/css">
   <![CDATA[
    .fil3 {fill:#FEFEFE}
    .fil1 {fill:#062983}
    .fil4 {fill:#062983;fill-rule:nonzero}
    .fil0 {fill:#062983;fill-rule:nonzero}
    .fil2 {fill:#062983;fill-opacity:0.600000}
   ]]>
  </style>
   <mask id="id0">
  <linearGradient id="id1" gradientUnits="userSpaceOnUse" x1="6881.52" y1="13635.09" x2="7357.66" y2="15382.79">
   <stop offset="0" style="stop-opacity:1; stop-color:white"/>
   <stop offset="0.25098" style="stop-opacity:0.501961; stop-color:white"/>
   <stop offset="1" style="stop-opacity:0; stop-color:white"/>
  </linearGradient>
    <rect style="fill:url(#id1)" x="6486.58" y="13885.17" width="1638.57" height="1261.17"/>
   </mask>
 </defs>
 <g id="Layer_x0020_1">
  <metadata id="CorelCorpID_0Corel-Layer"/>
  <path class="fil0" d="M14429.79 15337.27c11.68,0 19.01,-6.19 19.01,-18.39l0 -13.39c0,-12.32 -7.33,-18.59 -19.01,-18.59l-17.47 0c-0.64,0 -1,0.34 -1,1.06l0 48.25c0,0.7 0.36,1.06 1,1.06l17.47 0zm-9.95 -42.56l9.95 0c6.75,0 10.21,3.46 10.21,10.7l0 13.55c0,7.05 -3.46,10.34 -10.21,10.34l-9.95 0 0 -34.59zm61.51 20.85l19.79 0c0.72,0 1.06,-0.34 1.06,-1.04l0 -5.65c0,-0.7 -0.34,-1.06 -1.06,-1.06l-19.79 0 0 -13.16 21.63 0c0.7,0 1.06,-0.36 1.06,-1l0 -5.69c0,-0.72 -0.36,-1.06 -1.06,-1.06l-29.16 0c-0.64,0 -1,0.34 -1,1.06l0 48.25c0,0.7 0.36,1.06 1,1.06l30.16 0c0.7,0 1.04,-0.36 1.04,-1.06l0 -5.71c0,-0.62 -0.34,-0.98 -1.04,-0.98l-22.63 0 0 -13.96zm81.87 7.41c0,-11.14 -9.72,-13.82 -17.97,-15.64 -6.19,-1.42 -10.71,-2.61 -10.71,-7.13 0,-3.79 3.52,-6.19 9.59,-6.19 4.29,0.14 8.45,1.4 12.6,4.1 0.56,0.33 1.12,0.33 1.48,-0.22l3.38 -4.86c0.36,-0.5 0.3,-1.06 -0.28,-1.42 -5.7,-3.87 -10.49,-5.57 -16.56,-5.57 -10.15,0 -18.81,4.24 -18.81,14.02 0,10.51 9.72,13.88 17.13,15.44 6.13,1.26 11.41,2.54 11.41,7.61 0,4.79 -5.08,6.97 -10.21,6.97 -4.79,-0.14 -9.03,-2.04 -13.6,-5.35 -0.56,-0.36 -1.06,-0.28 -1.42,0.22l-3.51 4.93c-0.36,0.56 -0.28,0.98 0.2,1.48 5.71,4.49 10.92,6.75 17.97,6.75 10.29,0 19.31,-4.57 19.31,-15.14zm31.01 -35.01c0,-0.72 -0.36,-1.06 -1,-1.06l-6.47 0c-0.64,0 -1,0.34 -1,1.06l0 48.25c0,0.7 0.36,1.06 1,1.06l6.47 0c0.64,0 1,-0.36 1,-1.06l0 -48.25zm61.57 42.82c0.29,-0.2 0.35,-0.56 0.35,-1.12l0 -19.79c0,-0.72 -0.35,-1.06 -0.97,-1.06l-16.78 0c-0.64,0 -0.98,0.34 -0.98,1.06l0 5.49c0,0.7 0.34,1.06 0.98,1.06l9.45 0 0 10.7c-2.12,1.62 -5.64,2.96 -9.87,2.96 -6.05,0 -11.12,-3.1 -11.12,-10.07l0 -15.79c0,-6.89 4.49,-10.15 10.56,-10.15 4.57,0 8.73,1.14 12.4,3.32 0.56,0.28 1.06,0.28 1.4,-0.28l3.54 -4.86c0.34,-0.5 0.28,-1.05 -0.36,-1.47 -4.72,-2.98 -10.93,-4.74 -16.92,-4.74 -10.2,0 -19.15,5.65 -19.15,17.98l0 16.05c0,12.35 9.29,18.04 19.65,18.04 7.75,0 13.88,-3.1 17.82,-7.33zm31.58 6.49c0.62,0 0.98,-0.36 0.98,-1.06l0 -16.14c0,-5.99 -0.28,-13.32 -0.64,-19.37l0.22 -0.06c1.98,4.16 4.93,9.65 7.53,13.88l13.32 22.05c0.28,0.48 0.7,0.7 1.2,0.7l7.11 0c0.72,0 1.06,-0.36 1.06,-1.06l0 -48.25c0,-0.72 -0.34,-1.06 -1.06,-1.06l-6.33 0c-0.7,0 -1.06,0.34 -1.06,1.06l0 17.18c0,5.93 0.22,13.1 0.64,19.09l-0.22 0.08c-1.98,-3.82 -4.65,-8.53 -7.05,-12.76l-13.74 -23.95c-0.28,-0.42 -0.7,-0.7 -1.26,-0.7l-7.11 0c-0.64,0 -1,0.34 -1,1.06l0 48.25c0,0.7 0.36,1.06 1,1.06l6.41 0zm94.27 -21.71l19.79 0c0.72,0 1.06,-0.34 1.06,-1.04l0 -5.65c0,-0.7 -0.34,-1.06 -1.06,-1.06l-19.79 0 0 -13.16 21.63 0c0.7,0 1.06,-0.36 1.06,-1l0 -5.69c0,-0.72 -0.36,-1.06 -1.06,-1.06l-29.16 0c-0.64,0 -1,0.34 -1,1.06l0 48.25c0,0.7 0.36,1.06 1,1.06l30.16 0c0.7,0 1.04,-0.36 1.04,-1.06l0 -5.71c0,-0.62 -0.34,-0.98 -1.04,-0.98l-22.63 0 0 -13.96zm54.26 21.71c0.61,0 0.97,-0.36 0.97,-1.06l0 -16.14c0,-5.99 -0.28,-13.32 -0.64,-19.37l0.22 -0.06c1.98,4.16 4.94,9.65 7.53,13.88l13.32 22.05c0.28,0.48 0.7,0.7 1.2,0.7l7.11 0c0.72,0 1.06,-0.36 1.06,-1.06l0 -48.25c0,-0.72 -0.34,-1.06 -1.06,-1.06l-6.33 0c-0.7,0 -1.06,0.34 -1.06,1.06l0 17.18c0,5.93 0.22,13.1 0.64,19.09l-0.22 0.08c-1.97,-3.82 -4.65,-8.53 -7.05,-12.76l-13.74 -23.95c-0.28,-0.42 -0.7,-0.7 -1.26,-0.7l-7.11 0c-0.63,0 -0.99,0.34 -0.99,1.06l0 48.25c0,0.7 0.36,1.06 0.99,1.06l6.42 0zm92.36 -6.49c0.29,-0.2 0.35,-0.56 0.35,-1.12l0 -19.79c0,-0.72 -0.35,-1.06 -0.97,-1.06l-16.78 0c-0.64,0 -0.98,0.34 -0.98,1.06l0 5.49c0,0.7 0.34,1.06 0.98,1.06l9.45 0 0 10.7c-2.12,1.62 -5.64,2.96 -9.87,2.96 -6.05,0 -11.12,-3.1 -11.12,-10.07l0 -15.79c0,-6.89 4.49,-10.15 10.56,-10.15 4.57,0 8.73,1.14 12.4,3.32 0.56,0.28 1.06,0.28 1.4,-0.28l3.54 -4.86c0.34,-0.5 0.28,-1.05 -0.36,-1.47 -4.72,-2.98 -10.93,-4.74 -16.92,-4.74 -10.2,0 -19.15,5.65 -19.15,17.98l0 16.05c0,12.35 9.29,18.04 19.65,18.04 7.75,0 13.88,-3.1 17.82,-7.33zm32.64 -42.82c0,-0.72 -0.36,-1.06 -1,-1.06l-6.47 0c-0.64,0 -1,0.34 -1,1.06l0 48.25c0,0.7 0.36,1.06 1,1.06l6.47 0c0.64,0 1,-0.36 1,-1.06l0 -48.25zm33.04 49.31c0.62,0 0.98,-0.36 0.98,-1.06l0 -16.14c0,-5.99 -0.28,-13.32 -0.64,-19.37l0.22 -0.06c1.98,4.16 4.94,9.65 7.53,13.88l13.32 22.05c0.28,0.48 0.7,0.7 1.2,0.7l7.11 0c0.72,0 1.06,-0.36 1.06,-1.06l0 -48.25c0,-0.72 -0.34,-1.06 -1.06,-1.06l-6.33 0c-0.7,0 -1.06,0.34 -1.06,1.06l0 17.18c0,5.93 0.22,13.1 0.64,19.09l-0.22 0.08c-1.97,-3.82 -4.65,-8.53 -7.05,-12.76l-13.74 -23.95c-0.28,-0.42 -0.7,-0.7 -1.26,-0.7l-7.11 0c-0.64,0 -0.99,0.34 -0.99,1.06l0 48.25c0,0.7 0.35,1.06 0.99,1.06l6.41 0zm64.96 -21.71l19.8 0c0.71,0 1.05,-0.34 1.05,-1.04l0 -5.65c0,-0.7 -0.34,-1.06 -1.05,-1.06l-19.8 0 0 -13.16 21.63 0c0.7,0 1.06,-0.36 1.06,-1l0 -5.69c0,-0.72 -0.36,-1.06 -1.06,-1.06l-29.16 0c-0.63,0 -0.99,0.34 -0.99,1.06l0 48.25c0,0.7 0.36,1.06 0.99,1.06l30.16 0c0.7,0 1.04,-0.36 1.04,-1.06l0 -5.71c0,-0.62 -0.34,-0.98 -1.04,-0.98l-22.63 0 0 -13.96zm55.38 0l19.79 0c0.72,0 1.06,-0.34 1.06,-1.04l0 -5.65c0,-0.7 -0.34,-1.06 -1.06,-1.06l-19.79 0 0 -13.16 21.63 0c0.7,0 1.05,-0.36 1.05,-1l0 -5.69c0,-0.72 -0.35,-1.06 -1.05,-1.06l-29.16 0c-0.64,0 -1,0.34 -1,1.06l0 48.25c0,0.7 0.36,1.06 1,1.06l30.15 0c0.7,0 1.04,-0.36 1.04,-1.06l0 -5.71c0,-0.62 -0.34,-0.98 -1.04,-0.98l-22.62 0 0 -13.96zm83.07 21.71c0.76,0 1.12,-0.5 0.62,-1.28l-12.88 -18.03c7.39,-1.96 11.68,-7.25 11.68,-15 0,-10.09 -6.75,-16.06 -18.31,-16.06l-16.34 0c-0.64,0 -1,0.34 -1,1.06l0 48.25c0,0.7 0.36,1.06 1,1.06l6.47 0c0.64,0 1,-0.36 1,-1.06l0 -17.33 6.27 0 12.32 17.69c0.28,0.48 0.7,0.7 1.2,0.7l7.97 0zm-18.89 -42.56c6.55,0 9.64,2.62 9.64,8.31 0,5.65 -3.09,8.25 -9.64,8.25l-8.87 0 0 -16.56 8.87 0zm50.1 -6.75c0,-0.72 -0.36,-1.06 -1,-1.06l-6.47 0c-0.64,0 -1,0.34 -1,1.06l0 48.25c0,0.7 0.36,1.06 1,1.06l6.47 0c0.64,0 1,-0.36 1,-1.06l0 -48.25zm33.04 49.31c0.62,0 0.98,-0.36 0.98,-1.06l0 -16.14c0,-5.99 -0.28,-13.32 -0.64,-19.37l0.22 -0.06c1.98,4.16 4.93,9.65 7.53,13.88l13.32 22.05c0.28,0.48 0.7,0.7 1.2,0.7l7.11 0c0.72,0 1.06,-0.36 1.06,-1.06l0 -48.25c0,-0.72 -0.34,-1.06 -1.06,-1.06l-6.33 0c-0.7,0 -1.06,0.34 -1.06,1.06l0 17.18c0,5.93 0.22,13.1 0.64,19.09l-0.22 0.08c-1.98,-3.82 -4.65,-8.53 -7.05,-12.76l-13.74 -23.95c-0.28,-0.42 -0.7,-0.7 -1.26,-0.7l-7.11 0c-0.64,0 -1,0.34 -1,1.06l0 48.25c0,0.7 0.36,1.06 1,1.06l6.41 0zm92.36 -6.49c0.3,-0.2 0.36,-0.56 0.36,-1.12l0 -19.79c0,-0.72 -0.36,-1.06 -0.98,-1.06l-16.77 0c-0.64,0 -0.98,0.34 -0.98,1.06l0 5.49c0,0.7 0.34,1.06 0.98,1.06l9.44 0 0 10.7c-2.11,1.62 -5.63,2.96 -9.86,2.96 -6.05,0 -11.13,-3.1 -11.13,-10.07l0 -15.79c0,-6.89 4.5,-10.15 10.57,-10.15 4.57,0 8.73,1.14 12.4,3.32 0.56,0.28 1.06,0.28 1.4,-0.28l3.53 -4.86c0.34,-0.5 0.28,-1.05 -0.36,-1.47 -4.71,-2.98 -10.92,-4.74 -16.91,-4.74 -10.21,0 -19.15,5.65 -19.15,17.98l0 16.05c0,12.35 9.28,18.04 19.65,18.04 7.75,0 13.88,-3.1 17.81,-7.33zm54.49 -43.88c-0.64,0 -1,0.34 -1,1.06l0 48.25c0,0.7 0.36,1.06 1,1.06l6.47 0c0.64,0 1,-0.36 1,-1.06l0 -14.86 10.34 0c11.15,0 17.7,-6.41 17.7,-17.27 0,-10.71 -6.55,-17.18 -17.7,-17.18l-17.81 0zm7.47 26.56l0 -18.67 9.36 0c6.83,0 10.01,2.96 10.01,9.29 0,6.41 -3.18,9.38 -10.01,9.38l-9.36 0zm86.39 23.81c0.75,0 1.11,-0.5 0.61,-1.28l-12.88 -18.03c7.39,-1.96 11.69,-7.25 11.69,-15 0,-10.09 -6.75,-16.06 -18.32,-16.06l-16.33 0c-0.64,0 -1,0.34 -1,1.06l0 48.25c0,0.7 0.36,1.06 1,1.06l6.47 0c0.64,0 1,-0.36 1,-1.06l0 -17.33 6.27 0 12.32 17.69c0.28,0.48 0.7,0.7 1.2,0.7l7.97 0zm-18.9 -42.56c6.55,0 9.65,2.62 9.65,8.31 0,5.65 -3.1,8.25 -9.65,8.25l-8.86 0 0 -16.56 8.86 0zm44.11 42.56c0.56,0 0.98,-0.28 1.2,-0.84l3.45 -10.64 19.3 0 3.45 10.64c0.14,0.56 0.64,0.84 1.2,0.84l6.91 0c0.7,0 1.06,-0.42 0.84,-1.2l-16.92 -48.33c-0.2,-0.56 -0.56,-0.84 -1.11,-0.84l-8.03 0c-0.56,0 -0.92,0.28 -1.14,0.84l-16.9 48.33c-0.22,0.78 0.06,1.2 0.84,1.2l6.91 0zm14.16 -41.08l0.28 0 7.11 21.91 -14.5 0 7.11 -21.91zm76.11 36.79c0.48,-0.42 0.48,-0.92 0.14,-1.48l-3.32 -4.8c-0.36,-0.63 -0.84,-0.69 -1.42,-0.27 -3.29,2.39 -7.67,3.65 -11.68,3.65 -6.83,0 -10.84,-3.73 -10.84,-10.15l0 -15.77c0,-6.27 3.93,-10.09 10.76,-10.09 3.54,0 7.33,1 10.51,3.18 0.63,0.36 1.11,0.36 1.47,-0.28l3.32 -4.8c0.34,-0.56 0.28,-1.05 -0.22,-1.39 -4.21,-2.98 -9.65,-4.74 -15.08,-4.74 -10.28,0 -19.29,5.65 -19.29,18.04l0 16.07c0,12.41 8.95,17.96 19.43,17.96 5.85,0 11.76,-1.68 16.22,-5.13zm17.88 -46.08c-0.62,0 -1.06,0.34 -1.06,1.06l0 5.77c0,0.64 0.44,0.98 1.06,0.98l14.24 0 0 41.5c0,0.7 0.36,1.06 0.98,1.06l6.49 0c0.64,0 0.98,-0.36 0.98,-1.06l0 -41.5 14.16 0c0.64,0 1.06,-0.34 1.06,-0.98l0 -5.77c0,-0.72 -0.42,-1.06 -1.06,-1.06l-36.85 0zm67.1 1.06c0,-0.72 -0.36,-1.06 -1,-1.06l-6.47 0c-0.64,0 -1,0.34 -1,1.06l0 48.25c0,0.7 0.36,1.06 1,1.06l6.47 0c0.64,0 1,-0.36 1,-1.06l0 -48.25zm59.75 45.02c0.48,-0.42 0.48,-0.92 0.14,-1.48l-3.32 -4.8c-0.36,-0.63 -0.84,-0.69 -1.42,-0.27 -3.29,2.39 -7.67,3.65 -11.68,3.65 -6.83,0 -10.85,-3.73 -10.85,-10.15l0 -15.77c0,-6.27 3.94,-10.09 10.77,-10.09 3.53,0 7.33,1 10.5,3.18 0.64,0.36 1.12,0.36 1.48,-0.28l3.32 -4.8c0.34,-0.56 0.28,-1.05 -0.22,-1.39 -4.22,-2.98 -9.65,-4.74 -15.08,-4.74 -10.29,0 -19.29,5.65 -19.29,18.04l0 16.07c0,12.41 8.94,17.96 19.43,17.96 5.85,0 11.76,-1.68 16.22,-5.13zm30.28 -17.42l19.8 0c0.72,0 1.05,-0.34 1.05,-1.04l0 -5.65c0,-0.7 -0.33,-1.06 -1.05,-1.06l-19.8 0 0 -13.16 21.63 0c0.7,0 1.06,-0.36 1.06,-1l0 -5.69c0,-0.72 -0.36,-1.06 -1.06,-1.06l-29.15 0c-0.64,0 -1,0.34 -1,1.06l0 48.25c0,0.7 0.36,1.06 1,1.06l30.15 0c0.7,0 1.04,-0.36 1.04,-1.06l0 -5.71c0,-0.62 -0.34,-0.98 -1.04,-0.98l-22.63 0 0 -13.96z"/>
  <path class="fil0" d="M15266.17 15164.12l0 -186.59c0,-21.32 12.19,-38.84 35.04,-38.84 17.13,0 29.51,8.76 32.17,26.08 17.71,-19.42 39.41,-29.13 65.11,-29.13 29.32,0 53.51,11.81 72.35,35.42 17.33,-19.61 47.41,-35.42 73.88,-35.42 34.45,0 66.25,11.81 83.96,43.04 7.99,14.27 11.99,31.42 11.99,51.4 0,12.38 1.33,25.52 -4.57,37.13 -6.09,11.8 -17.33,18.66 -30.46,18.66 -22.84,0 -35.03,-17.71 -35.03,-39.03 0,-10.67 -0.38,-19.8 -4.75,-29.71 -6.86,-14.85 -19.81,-23.03 -36.18,-23.03 -27.8,0 -41.31,22.08 -41.31,47.98l0 68.54c0,21.32 -12.95,39.03 -35.03,39.03 -21.32,0 -34.84,-16.56 -34.84,-37.12l0 -70.45c0,-16.37 -4.95,-32.37 -19.04,-41.89 -12.56,-8.19 -32.75,-8.19 -45.13,0 -14.27,9.33 -18.09,25.71 -18.09,41.89l0 122.04c0,13.52 -5.14,27.04 -17.13,34.08 -5.33,3.24 -11.43,4.95 -17.9,4.95 -10.47,0 -19.04,-3.61 -25.32,-10.85 -6.48,-7.04 -9.71,-16.56 -9.71,-28.18l-0.01 0z"/>
  <path class="fil1" d="M15474.65 15183.54c0,-10.83 -8.77,-19.61 -19.6,-19.61 -10.83,0 -19.61,8.78 -19.61,19.61 0,10.83 8.78,19.61 19.61,19.61 10.83,0 19.6,-8.78 19.6,-19.61z"/>
  <path class="fil1" d="M15627.35 15183.54c0,-10.83 -8.77,-19.61 -19.6,-19.61 -10.83,0 -19.62,8.78 -19.62,19.61 0,10.83 8.79,19.61 19.62,19.61 10.83,0 19.6,-8.78 19.6,-19.61z"/>
  <path class="fil1" d="M15636.3 15124.71c0,-16.3 -13.21,-29.51 -29.51,-29.51 -16.3,0 -29.52,13.21 -29.52,29.51 0,16.3 13.22,29.51 29.52,29.51 16.3,0 29.51,-13.21 29.51,-29.51z"/>
  <path class="fil0" d="M15173.07 15202.58c-10.66,0 -19.6,-3.05 -26.65,-9.14 -6.86,-6.28 -10.47,-15.04 -10.47,-26.65l0 -357.37c0,-11.43 3.62,-20.37 10.47,-26.27 7.05,-5.9 15.99,-8.95 26.65,-8.95 10.85,0 19.81,3.04 27.04,8.95 7.04,5.9 10.66,14.85 10.66,26.27l0 357.37c0,11.61 -3.62,20.37 -10.66,26.65 -7.23,6.09 -16.19,9.14 -27.04,9.14zm637.06 -208.1c-14.66,0 -26.47,4.57 -35.41,14.09 -8.76,9.32 -14.09,22.85 -15.8,40.74l99 0c-1.15,-18.09 -5.52,-31.8 -13.71,-41.12 -7.99,-9.14 -19.42,-13.71 -34.08,-13.71zm88.34 129.66c6.67,0 12.38,2.85 16.57,8.19 4.19,5.52 6.47,12.56 6.47,21.13 0,5.71 -1.71,11.05 -5.13,16.18 -3.43,4.95 -8.19,9.14 -14.47,12.57 -11.62,6.09 -25.14,11.04 -40.37,15.03 -15.42,4.01 -29.7,5.91 -42.65,5.91 -27.41,0 -51.21,-5.34 -71.58,-15.8 -20.38,-10.67 -35.99,-25.9 -46.84,-45.51 -11.04,-19.61 -16.56,-42.84 -16.56,-69.49 0,-25.71 5.33,-48.36 15.99,-68.16 10.66,-19.81 25.32,-35.41 44.17,-46.46 18.66,-11.23 40.18,-16.75 63.97,-16.75 23.04,0 43.03,5.14 60.35,15.23 17.33,10.09 30.66,24.37 40.18,43.03 9.71,18.66 14.47,40.37 14.47,65.5 0,7.43 -1.9,13.14 -5.33,17.13 -3.62,4 -8.76,5.91 -15.24,5.91l-143.55 0c2.29,20.18 8.57,34.84 18.46,43.78 9.9,9.14 23.99,13.71 42.45,13.71 9.91,0 18.85,-1.33 26.85,-3.62 7.81,-2.48 16.57,-5.71 26.09,-9.9 4.76,-1.91 9.33,-3.81 13.9,-5.33 4.37,-1.53 8.37,-2.29 11.8,-2.29l0 0.01zm-869.52 78.06c-11.43,0 -20.76,-3.24 -27.99,-9.33 -7.43,-6.09 -11.05,-15.23 -11.05,-27.23l0 -353.37c0,-11.8 3.62,-20.94 11.05,-27.03 7.23,-6.28 16.57,-9.33 27.99,-9.33 10.85,0 19.99,3.05 27.41,9.33 7.24,6.09 11.05,15.23 11.05,27.03l0 353.37c0,12 -3.81,21.14 -11.05,27.23 -7.42,6.09 -16.56,9.33 -27.41,9.33zm-198.58 -207.72c-14.66,0 -26.47,4.57 -35.42,14.09 -8.94,9.32 -14.08,22.85 -15.8,40.74l99.01 0c-1.15,-18.09 -5.72,-31.8 -13.71,-41.12 -8,-9.14 -19.42,-13.71 -34.08,-13.71zm88.15 129.66c6.86,0 12.37,2.85 16.75,8.19 4.19,5.52 6.48,12.56 6.48,21.13 0,5.71 -1.72,11.05 -5.14,16.18 -3.43,4.95 -8.19,9.14 -14.47,12.57 -11.62,6.09 -25.14,11.04 -40.56,15.03 -15.23,4.01 -29.51,5.91 -42.46,5.91 -27.41,0 -51.21,-5.34 -71.58,-15.8 -20.37,-10.67 -35.99,-25.9 -47.03,-45.51 -10.85,-19.61 -16.37,-42.84 -16.37,-69.49 0,-25.71 5.34,-48.36 16,-68.16 10.47,-19.81 25.32,-35.41 43.98,-46.46 18.85,-11.23 40.37,-16.75 64.16,-16.75 23.03,0 43.03,5.14 60.35,15.23 17.33,10.09 30.66,24.37 40.18,43.03 9.52,18.66 14.47,40.37 14.47,65.5 0,7.43 -1.91,13.14 -5.52,17.13 -3.42,4 -8.57,5.91 -15.04,5.91l-143.56 0c2.29,20.18 8.38,34.84 18.47,43.78 9.9,9.14 23.99,13.71 42.45,13.71 9.91,0 18.85,-1.33 26.65,-3.62 8,-2.48 16.57,-5.71 26.28,-9.9 4.75,-1.91 9.32,-3.81 13.71,-5.33 4.57,-1.53 8.37,-2.29 11.8,-2.29l0 0.01z"/>
  <path class="fil0" d="M14382.95 15169.26l-59.41 -167.92c-4.94,-14.47 -7.23,-25.51 -7.23,-32.94 0,-26.65 37.7,-36.55 56.36,-20.75 5.9,5.14 9.71,11.8 11.8,20.18l40.36 133.66 0.77 0 40.93 -130.8c5.52,-18.66 15.04,-30.65 35.61,-30.65 20.57,0 30.27,11.8 35.41,30.65l40.75 130.8 0.95 0 15.61 -61.49c4,-16.19 15.99,-27.99 33.13,-27.99 6.66,0 12.76,1.53 18.09,4.19 23.61,11.8 16.95,36.74 9.9,56.16l-34.84 96.91c-8.57,23.41 -22.28,35.41 -42.27,35.41 -20.18,0 -33.51,-10.85 -40.36,-32.75l-35.99 -112.71 -0.76 0 -36.17 112.71c-6.86,21.9 -20.38,32.75 -40.36,32.75 -23.23,0 -34.85,-15.23 -42.28,-35.41l0 -0.01z"/>
  <path class="fil1" d="M14658.61 14914.49c-3.74,10.19 1.47,21.48 11.66,25.22 10.18,3.74 21.47,-1.48 25.21,-11.67 3.75,-10.18 -1.47,-21.47 -11.65,-25.22 -10.19,-3.74 -21.48,1.49 -25.22,11.67z"/>
  <path class="fil2" d="M14629.12 14966.26c-5.61,15.28 2.22,32.22 17.49,37.83 15.28,5.61 32.21,-2.23 37.83,-17.51 5.61,-15.27 -2.22,-32.21 -17.49,-37.83 -15.28,-5.61 -32.21,2.23 -37.83,17.51z"/>
  <path class="fil0" d="M15880.81 14900.86c-0.74,0 -1.24,-0.5 -1.24,-1.24l0 -34.64c0,-0.74 0.5,-1.24 1.24,-1.24l7.05 0c0.75,0 1.36,0.37 1.6,1.12l6.69 15.71 2.35 6.18 2.35 -6.18 6.69 -15.71c0.24,-0.75 0.85,-1.12 1.6,-1.12l7.05 0c0.75,0 1.24,0.5 1.24,1.24l0 34.64c0,0.74 -0.49,1.24 -1.24,1.24l-5.32 0c-0.74,0 -1.24,-0.5 -1.24,-1.24l0 -12.25 0.75 -12.37 -0.25 0 -3.1 8.16 -5.07 10.65c-0.37,0.86 -0.86,1.23 -1.61,1.23l-3.7 0c-0.75,0 -1.24,-0.37 -1.62,-1.23l-5.06 -10.65 -3.09 -8.16 -0.25 0 0.74 12.37 0 12.25c0,0.74 -0.37,1.24 -1.24,1.24l-5.32 0zm-22.15 0c-0.87,0 -1.23,-0.5 -1.23,-1.24l0 -28.45 -9.65 0c-0.74,0 -1.24,-0.5 -1.24,-1.24l0 -4.95c0,-0.87 0.37,-1.24 1.24,-1.24l27.46 0c0.87,0 1.24,0.5 1.24,1.24l0 4.95c0,0.74 -0.37,1.24 -1.24,1.24l-9.65 0 0 28.45c0,0.74 -0.37,1.24 -1.24,1.24l-5.69 0z"/>
  <path class="fil1" d="M6487.14 14116.9c-4.14,296.37 32.83,559.07 152.61,785.52 133.34,252.09 345.21,467.57 568.61,607.91 24.9,15.65 48.51,27.97 75.07,43.6 31.37,18.46 44.27,0.14 76.61,-18.38 134.55,-77.07 229.89,-159.83 332.72,-258.26 108.17,-103.54 310.72,-371.39 330.43,-498.36 -17.72,-24.03 -168.06,-154.19 -195.04,-188.91 25.75,-14.34 49.07,-26.21 74.07,-38.99 39.06,-19.98 35.3,-27.9 40.51,-75.72 8.12,-74.46 6.46,-151.88 3.68,-227.97 -24.9,-21.74 -311.66,-114.82 -363.55,-113.08l-1.07 934.38c18.2,-4.68 85.43,-74.21 106.27,-94.21 18.92,-18.16 19.69,-15.79 19.49,-51.28 -0.52,-89.07 -4.05,-189.92 1.17,-277.81l181.59 169.57c-27.34,108.41 -248.86,312.16 -356.08,386.07 -26.33,18.15 -203.36,136.67 -231.41,135.4 -29.35,-1.32 -207.12,-121.27 -233.21,-139.56 -341.01,-239.01 -511.99,-562.41 -473.33,-1006.27 30.25,-18.48 123.66,-46.85 162.3,-58.61 93.74,-28.53 468.33,-129.78 543.86,-130.35 29.06,-0.22 149.02,27.93 186.53,35.99 63.54,13.63 121.25,26.91 182.53,42.6 93.52,23.94 263.62,69.18 341.89,110.78 13.46,123.12 12.12,222.01 -9.82,342.03 -6.68,36.48 -18.74,73.38 -22.87,107.18 11.78,14.25 55.68,54.85 72.05,60.74 54.13,-89.04 80.86,-461.75 69.62,-584.97 -46.2,-32.78 -498.21,-150.27 -606.99,-177.01 -44.63,-10.97 -176.16,-52.55 -208.17,-53.5 -22.12,-0.66 -366.3,93.37 -416.43,106.28 -86.69,22.32 -353.95,92.94 -403.64,125.19zm591.41 5.34l-0.24 993.31 109.85 77.37c17.48,-27.65 46.68,-190.36 57.24,-233.31 15.44,-62.77 33.96,-185.79 55.89,-236.35 19.74,72.21 100.94,408.8 108.24,468.96 23.71,-6.89 102.82,-63.33 116.06,-79.22 5.94,-15.12 0.48,-729.69 0.98,-868.57 0.11,-31.19 10.19,-100.62 -5.03,-121.57 -15.56,-13.16 -94.57,-29.14 -118.84,-26.03l-6.44 525.18 -93.26 -311.28c-19.2,28.18 -77.96,255.69 -95.63,307.02l-5.51 -519.11c-22.78,-6.27 -103.44,15.39 -123.31,23.6zm-414.72 121.02c-4.83,117.61 0.26,223.53 26.93,330.09 13.1,52.32 69.52,204.59 104.95,240.14 8.75,8.78 -1.27,0.95 10.69,8.63 -3.6,-73.23 -21.7,-132.72 -21.63,-211.28l111.9 -1.58c4.65,95.07 1.17,197.91 0.94,293.07 -0.08,29.83 -5.1,43.52 9.73,60.9l114.55 105.77 1.24 -935.37c-72.14,-1.63 -290.6,88.87 -359.3,109.63zm118.59 76.33l-0.75 172.13 115.19 0.44 0.63 -207.16c-28.57,2.83 -93.85,24.98 -115.07,34.59zm924.48 194.24c29.29,-7.16 91.67,-35.12 112.08,-50.21l4.42 -142.07c-23.35,-15.04 -85.95,-33.6 -114.75,-40.3l-1.75 232.58z"/>
  <path class="fil3" style="mask:url(#id0)" d="M6487.14 14116.9c-4.13,296.37 32.84,559.08 152.61,785.53 45.48,85.99 100.12,167.72 161.22,243.66 -3.24,-59.9 1.38,-121.11 13.46,-182.32 -168.08,-206.08 -245.47,-459.57 -218.15,-773.22 30.26,-18.49 123.66,-46.85 162.31,-58.61 93.73,-28.53 468.33,-129.77 543.85,-130.35 29.06,-0.22 149.02,27.93 186.53,35.99 63.54,13.63 121.25,26.91 182.53,42.6 85.74,21.95 235.86,61.81 320.55,100.34 46.05,10.02 90.39,24.16 132.45,42.28 0.92,-43.43 0.25,-80.76 -2.13,-106.86 -46.2,-32.79 -498.21,-150.27 -606.99,-177.01 -44.63,-10.97 -176.16,-52.55 -208.16,-53.5 -22.13,-0.66 -366.31,93.38 -416.44,106.27 -86.68,22.33 -353.95,92.95 -403.64,125.2zm1238.25 49.95c-63.85,-18.91 -121.85,-33.28 -142.53,-32.59l-0.07 57.98c47.69,-12.15 95.39,-20.61 142.6,-25.39zm-646.85 -44.6l-0.09 361.32c38.44,-38.81 80.64,-75.48 126.33,-109.45l-2.92 -275.49c-22.77,-6.25 -103.44,15.4 -123.32,23.62zm449.91 85.45c2.02,-32.29 3.67,-70.28 -6.91,-84.85 -15.56,-13.15 -94.58,-29.13 -118.84,-26.02l-1.97 160.46c42.16,-19.56 84.85,-36.11 127.72,-49.59zm-864.62 35.56c-4.83,117.61 0.26,223.53 26.94,330.08 13.1,52.33 69.51,204.6 104.94,240.15 8.75,8.77 -1.27,0.95 10.69,8.63 -3.6,-73.23 -21.69,-132.72 -21.63,-211.28l111.91 -1.57c1.86,38.29 2.41,77.84 2.39,117.64 33.25,-63.36 74.61,-124.69 123.51,-182.37l0.55 -410.92c-72.14,-1.62 -290.6,88.87 -359.3,109.64zm118.59 76.33l-0.76 172.12 115.2 0.45 0.63 -207.16c-28.57,2.83 -93.85,24.98 -115.07,34.59z"/>
  <path class="fil4" d="M8379.76 14665.53l121.43 0c17.79,-48.72 28.62,-78.88 45.63,-125.29l163.19 0 47.95 125.29 119.11 0 -196.45 -547.57 -109.05 0 -191.81 547.57zm250.59 -426.92l15.46 78.11 34.81 119.11 -105.19 0 30.94 -118.33 15.47 -78.89 8.51 0zm285.39 426.92l113.7 0 0 -547.57 -113.7 0 0 547.57zm672.88 -210.36c0.77,0.77 14.69,-66.52 14.69,-66.52l6.19 0 12.38 65.74 70.38 211.14 111.37 0 157.78 -547.57 -116.79 0 -79.66 286.93 -14.7 132.25 -6.96 0 -22.42 -132.25 -66.52 -211.14 -92.03 0c-30.94,98.22 -39.45,109.82 -69.61,209.59l-18.57 128.39 -6.96 0 -17.01 -127.61 -78.12 -286.16 -117.56 0 158.55 547.57 111.38 0 64.19 -210.36zm392.12 -166.29l0 205.73c0,243.62 448.59,242.85 448.59,0l0 -205.73c0,-242.85 -448.59,-244.4 -448.59,0zm112.92 0c0,-92.04 222.74,-94.36 221.97,0l0 205.73c0,91.26 -222.74,92.04 -221.97,0l0 -205.73zm697.62 168.61c78.89,-15.47 124.53,-64.2 124.53,-164.74 -3.1,-124.53 -85.86,-174.79 -195.68,-174.79l-215.78 0 0 547.57 114.46 0 0 -200.31 40.22 0 155.46 200.31 139.98 0 -163.19 -208.04zm-172.47 -95.91l0 -129.16 101.32 0c47.95,-1.55 81.98,14.7 81.98,61.1 0,47.95 -31.71,68.06 -81.98,68.06l-101.32 0zm368.92 -243.62l0 547.57 113.7 0 0 -182.52 21.65 -20.88 170.93 203.4 140.76 0 -235.12 -279.2 235.12 -268.37 -138.44 0 -194.9 228.15 0 -228.15 -113.7 0zm845.35 0l-370.46 0 0 547.57 114.46 0 0 -204.18 224.29 0 0 -112.14 -224.29 0 0 -120.66 256 0 0 -110.59zm406.05 433.11l-236.67 0 0 -433.11 -113.69 0 0 547.57 350.36 0 0 -114.46zm40.99 -262.19l0 205.73c0,243.62 448.58,242.85 448.58,0l0 -205.73c0,-242.85 -448.58,-244.4 -448.58,0zm112.92 0c0,-92.04 222.74,-94.36 221.97,0l0 205.73c0,91.26 -222.75,92.04 -221.97,0l0 -205.73zm697.62 166.29c0.77,0.77 14.69,-66.52 14.69,-66.52l6.19 0 12.38 65.74 70.38 211.14 111.37 0 157.78 -547.57 -116.79 0 -79.66 286.93 -14.7 132.25 -6.96 0 -22.42 -132.25 -66.52 -211.14 -92.03 0c-30.94,98.22 -39.45,109.82 -69.61,209.59l-18.57 128.39 -6.96 0 -17.01 -127.61 -78.12 -286.16 -117.56 0 158.55 547.57 111.38 0 64.19 -210.36zm905.67 2.32c78.89,-15.47 124.52,-64.2 124.52,-164.74 -3.09,-124.53 -85.85,-174.79 -195.67,-174.79l-215.78 0 0 547.57 114.46 0 0 -200.31 40.22 0 155.45 200.31 139.99 0 -163.19 -208.04zm-172.47 -95.91l0 -129.16 101.32 0c47.95,-1.55 81.98,14.7 81.98,61.1 0,47.95 -31.71,68.06 -81.98,68.06l-101.32 0zm368.92 -243.62l0 368.14c0,250.59 429.25,249.81 430.02,0l0 -368.14 -114.46 0 0 368.14c0,102.09 -201.09,102.87 -201.09,0l0 -368.14 -114.47 0zm872.42 433.11l-236.67 0 0 -433.11 -113.69 0 0 547.57 350.36 0 0 -114.46zm422.29 -433.89l-371.24 0 0 548.35 371.24 0 0 -110.59 -256.78 0 0 -108.28 235.89 0 0 -110.6 -235.89 0 0 -107.51 256.78 0 0 -111.37zm54.14 451.67c46.4,69.61 119.1,104.42 190.25,104.42 99.78,0 198.78,-55.69 208.06,-158.55 5.41,-129.16 -87.4,-163.97 -182.53,-181.76 -47.95,-10.05 -93.59,-16.24 -94.36,-61.1l0 -0.77c2.32,-37.9 40.22,-54.14 83.53,-54.14 35.58,0 68.06,16.24 91.26,51.82l93.59 -62.65c-45.63,-68.83 -113.69,-96.67 -184.85,-96.67 -98.22,0 -193.35,54.13 -199.54,157.77 -1.55,120.66 87.39,160.87 173.25,174.02 56.46,7.74 107.5,18.57 105.18,65.74 -4.64,76.57 -148.5,75.03 -198,-3.87l-85.84 65.74z"/>
  <path class="fil4" d="M8469.48 15207.78l96.93 0c81.47,0 122.71,-57.58 122.71,-116.35 0,-58.27 -41.24,-117.05 -123.23,-117.05l-139.21 0 0 364.54 42.8 0 0 -131.14zm96.41 -43.14l-96.41 0 0 -146.94 96.41 0c53.63,-1.04 80.44,36.6 80.44,73.73 0,36.6 -26.29,73.21 -80.44,73.21zm176.34 -190.26l0 255.23c0,77.34 69.09,116.53 138.7,116.53 69.09,0 138.7,-39.19 138.7,-116.53l0 -255.23 -43.31 0 0 255.23c0,49.5 -47.95,73.21 -95.39,73.21 -47.95,0 -95.39,-23.71 -95.39,-73.21l0 -255.23 -43.31 0zm397.54 150.04l0 -107.24 96.93 0c35.58,0 64.97,13.41 64.97,53.11 0,39.69 -27.85,54.13 -64.97,54.13l-96.93 0zm96.93 43.31c49.5,-0.51 80.95,16.5 80.95,66.52 0,49.5 -34.03,62.9 -80.95,61.87l-96.93 0 0 -128.39 96.93 0zm107.25 -97.44c0,-64.45 -48.47,-96.42 -107.25,-96.42l-140.24 0 0 365.56 139.72 0c70.13,0 123.23,-27.32 124.78,-104.67 0,-40.21 -12.37,-72.7 -47.44,-90.75 21.66,-18.04 30.43,-44.85 30.43,-73.72zm293.38 225.83l-175.31 0 0 -321.74 -43.31 0 0 365.05 218.62 0 0 -43.31zm37.12 42.8l42.8 0 0 -364.54 -42.8 0 0 364.54zm105.19 -254.2l0 144.37c0,75.8 69.09,113.95 137.66,113.95 52.6,0 106.73,-24.75 130.45,-74.25l-38.67 -18.04c-16.5,32.48 -54.13,48.98 -91.78,48.98 -46.91,0 -94.35,-23.2 -94.35,-70.64l0 -144.37c0,-47.44 47.44,-70.64 94.35,-70.64 37.13,0 74.77,17.02 91.78,49.5l38.67 -19.59c-23.2,-49.5 -76.31,-73.22 -128.9,-73.22 -69.61,0 -139.21,38.67 -139.21,113.95zm411.97 -110.85l0 43.31 117.04 0 0 321.74 43.31 0 0 -321.74 117.04 0 0 -43.31 -277.39 0zm552.73 0l-234.09 0 0 365.56 234.09 0 0 -43.31 -190.78 0 0 -117.56 175.83 0 0 -43.31 -175.83 0 0 -118.07 190.78 0 0 -43.31zm245.94 317.18l105.19 -235.8 0 283.67 43.31 0 0 -364.54 -54.14 0c-36.61,84.48 -75.28,170.41 -112.92,254.37l-112.92 -254.37 -54.13 0 0 364.54 43.3 0 0 -283.16 105.71 235.29 36.6 0zm269.66 -83.27l96.94 0c81.47,0 122.71,-57.58 122.71,-116.35 0,-58.27 -41.24,-117.05 -123.23,-117.05l-139.21 0 0 364.54 42.79 0 0 -131.14zm96.42 -43.14l-96.42 0 0 -146.94 96.42 0c53.63,-1.04 80.44,36.6 80.44,73.73 0,36.6 -26.3,73.21 -80.44,73.21zm396.5 131.48l-175.3 0 0 -321.74 -43.31 0 0 365.05 218.61 0 0 -43.31zm11.35 42.8l45.89 0c12.89,-37.99 27.84,-78.46 41.25,-116.53l140.76 0 42.28 116.53 45.37 0 -131.99 -364.54 -52.6 0 -130.96 364.54zm101.57 -159.84c19.6,-54.66 37.13,-104.67 55.69,-158.29 20.62,58.26 35.57,102.09 55.69,158.29l-111.38 0zm171.7 -205.21l0 43.31 117.04 0 0 321.74 43.32 0 0 -321.74 117.04 0 0 -43.31 -277.4 0zm552.73 0l-234.08 0 0 365.56 234.08 0 0 -43.31 -190.77 0 0 -117.56 175.82 0 0 -43.31 -175.82 0 0 -118.07 190.77 0 0 -43.31z"/>
 </g>
</svg>
